<svg width="37" height="37" viewBox="0 0 37 37" fill="none" xmlns="http://www.w3.org/2000/svg">
<rect y="1" width="35" height="34" fill="#542302"/>
<path d="M12.6836 8.86719H8.62109V30H12.918V13.7695C12.9961 13.5742 13.0807 13.3984 13.1719 13.2422C13.276 13.0859 13.3932 12.9492 13.5234 12.832C13.6927 12.6628 13.8945 12.5391 14.1289 12.4609C14.3763 12.3698 14.6562 12.3242 14.9688 12.3242C15.2552 12.3242 15.5091 12.3633 15.7305 12.4414C15.9648 12.5195 16.1667 12.6432 16.3359 12.8125C16.5052 12.9818 16.6289 13.2161 16.707 13.5156C16.7982 13.8021 16.8438 14.1536 16.8438 14.5703V30H21.0625V14.3164C21.0625 14.1862 21.0625 14.0885 21.0625 14.0234C21.0625 13.9453 21.0625 13.8802 21.0625 13.8281C21.1146 13.6068 21.1927 13.4115 21.2969 13.2422C21.401 13.0599 21.5312 12.9036 21.6875 12.7734C21.8568 12.6302 22.0521 12.5195 22.2734 12.4414C22.4948 12.3633 22.7617 12.3242 23.0742 12.3242C23.3477 12.3242 23.6016 12.3633 23.8359 12.4414C24.0833 12.5195 24.2917 12.6432 24.4609 12.8125C24.6302 12.9948 24.7604 13.2357 24.8516 13.5352C24.9427 13.8216 24.9883 14.1732 24.9883 14.5898V30H29.2852V14.6289C29.2852 13.5221 29.168 12.5781 28.9336 11.7969C28.7122 11.0026 28.3932 10.3581 27.9766 9.86328C27.5599 9.39453 27.0651 9.04948 26.4922 8.82812C25.9323 8.59375 25.3138 8.47656 24.6367 8.47656C24.1159 8.47656 23.6341 8.54167 23.1914 8.67188C22.7617 8.80208 22.3711 8.98438 22.0195 9.21875C21.7461 9.40104 21.4922 9.6224 21.2578 9.88281C21.0234 10.1432 20.8151 10.4232 20.6328 10.7227C20.5026 10.3971 20.3464 10.1107 20.1641 9.86328C19.9818 9.60286 19.7734 9.38151 19.5391 9.19922C19.2396 8.95182 18.8815 8.76953 18.4648 8.65234C18.0482 8.53516 17.5794 8.47656 17.0586 8.47656C16.056 8.47656 15.1966 8.71745 14.4805 9.19922C13.7773 9.68099 13.224 10.3451 12.8203 11.1914L12.6836 8.86719Z" fill="white"/>
<rect x="1" y="1" width="35" height="35" stroke="#F9C529" stroke-width="2"/>
</svg>
